<?xml version="1.0" encoding="UTF-8" standalone="no"?>
<svg
   xmlns:dc="http://purl.org/dc/elements/1.1/"
   xmlns:cc="http://creativecommons.org/ns#"
   xmlns:rdf="http://www.w3.org/1999/02/22-rdf-syntax-ns#"
   xmlns:svg="http://www.w3.org/2000/svg"
   xmlns="http://www.w3.org/2000/svg"
   xmlns:sodipodi="http://sodipodi.sourceforge.net/DTD/sodipodi-0.dtd"
   xmlns:inkscape="http://www.inkscape.org/namespaces/inkscape"
   viewBox="0 0 512 512"
   id="svg3817"
   version="1.1"
   inkscape:version="0.48.2 r9819"
   width="100%"
   height="100%"
   sodipodi:docname="html5logo.svg">
  <metadata
     id="metadata3845">
    <rdf:RDF>
      <cc:Work
         rdf:about="">
        <dc:format>image/svg+xml</dc:format>
        <dc:type
           rdf:resource="http://purl.org/dc/dcmitype/StillImage" />
      </cc:Work>
    </rdf:RDF>
  </metadata>
  <defs
     id="defs3843" />
  <sodipodi:namedview
     pagecolor="#ffffff"
     bordercolor="#666666"
     borderopacity="1"
     objecttolerance="10"
     gridtolerance="10"
     guidetolerance="10"
     inkscape:pageopacity="0"
     inkscape:pageshadow="2"
     inkscape:window-width="1920"
     inkscape:window-height="1018"
     id="namedview3841"
     showgrid="false"
     inkscape:zoom="0.65186406"
     inkscape:cx="103.93635"
     inkscape:cy="177.06248"
     inkscape:window-x="1016"
     inkscape:window-y="0"
     inkscape:window-maximized="1"
     inkscape:current-layer="svg3817" />
  <title
     id="title3819">HTML5 Logo</title>
  <polygon
     fill="#E44D26"
     points="107.644,470.877 74.633,100.62 437.367,100.62 404.321,470.819 255.778,512"
     id="polygon3821" />
  <polygon
     fill="#F16529"
     points="256,480.523 376.03,447.246 404.27,130.894 256,130.894"
     id="polygon3823" />
  <polygon
     fill="#EBEBEB"
     points="256,268.217 195.91,268.217 191.76,221.716 256,221.716 256,176.305 255.843,176.305 142.132,176.305 143.219,188.488 154.38,313.627 256,313.627"
     id="polygon3825" />
  <polygon
     fill="#EBEBEB"
     points="256,386.153 255.801,386.206 205.227,372.55 201.994,336.333 177.419,336.333 156.409,336.333 162.771,407.634 255.791,433.457 256,433.399"
     id="polygon3827" />
  <polygon
     fill="#FFFFFF"
     points="255.843,268.217 255.843,313.627 311.761,313.627 306.49,372.521 255.843,386.191 255.843,433.435 348.937,407.634 349.62,399.962 360.291,280.411 361.399,268.217 349.162,268.217"
     id="polygon3837" />
  <polygon
     fill="#FFFFFF"
     points="255.843,176.305 255.843,204.509 255.843,221.605 255.843,221.716 365.385,221.716 365.385,221.716 365.531,221.716 366.442,211.509 368.511,188.488 369.597,176.305"
     id="polygon3839" />
  <path
     style="fill:#666666;fill-opacity:1"
     d="m 108.57893,34.684042 0,-34.32464105 11.31371,0 11.31371,0 0,11.31370805 0,11.313709 10.73844,0 10.73843,0 0,-11.313709 0,-11.31370805 11.31371,0 11.31371,0 0,34.32464105 0,34.324641 -11.31371,0 -11.31371,0 0,-11.697224 0,-11.697224 -10.73843,0 -10.73844,0 0,11.697224 0,11.697224 -11.31371,0 -11.31371,0 0,-34.324641 z"
     id="path4469"
     inkscape:connector-curvature="0" />
  <path
     style="fill:#666666;fill-opacity:1"
     d="m 205.99188,45.805993 0,-23.202691 -9.9714,0 -9.97141,0 0,-11.12195 0,-11.12195105 31.64003,0 31.64004,0 0,11.12195105 0,11.12195 -10.16316,0 -10.16317,0 0,23.202691 0,23.20269 -11.50546,0 -11.50547,0 0,-23.20269 z"
     id="path4471"
     inkscape:connector-curvature="0" />
  <path
     style="fill:#666666;fill-opacity:1;opacity:1"
     d="m 259.68406,34.678578 0,-34.33010466 11.97934,0.10134271 11.97934,0.10134268 7.28494,11.95279527 c 4.00672,6.574037 7.40081,11.881182 7.54244,11.793654 0.14162,-0.08753 3.51029,-5.507989 7.48592,-12.045469 l 7.22843,-11.88632789 11.98487,-0.003205 11.98486,-0.003205 0,34.32464105 0,34.324641 -11.31371,0 -11.31371,0 0,-17.066442 c 0,-9.386542 -0.12944,-17.066305 -0.28764,-17.06614 -0.1582,1.66e-4 -3.8026,5.43421 -8.09868,12.075652 -4.29608,6.641442 -7.92524,12.004777 -8.0648,11.91852 -0.13956,-0.08626 -3.70045,-5.514305 -7.91309,-12.062331 -4.21264,-6.548029 -7.78878,-11.911499 -7.94698,-11.918824 -0.1582,-0.0073 -0.28763,7.666581 -0.28763,17.053123 l 0,17.066442 -11.12195,0 -11.12195,0 0,-34.330105 z"
     id="path4473"
     inkscape:connector-curvature="0" />
  <path
     style="fill:#666666;fill-opacity:1"
     d="m 349.04318,34.684042 0,-34.32464105 11.31371,0 11.31371,0 0,23.01093305 0,23.010932 16.10765,0 16.10765,0 0,11.313709 0,11.313708 -27.42136,0 -27.42136,0 0,-34.324641 z"
     id="path4475"
     inkscape:connector-curvature="0" />
</svg>
