<?xml version="1.0" encoding="UTF-8" standalone="no"?>
<svg
   xmlns:dc="http://purl.org/dc/elements/1.1/"
   xmlns:cc="http://creativecommons.org/ns#"
   xmlns:rdf="http://www.w3.org/1999/02/22-rdf-syntax-ns#"
   xmlns:svg="http://www.w3.org/2000/svg"
   xmlns="http://www.w3.org/2000/svg"
   xmlns:sodipodi="http://sodipodi.sourceforge.net/DTD/sodipodi-0.dtd"
   xmlns:inkscape="http://www.inkscape.org/namespaces/inkscape"
   xml:space="preserve"
   version="1.0"
   id="layer1"
   width="400pt"
   height="400pt"
   viewBox="0 0 75 75"
   inkscape:version="0.48.2 r9819"
   sodipodi:docname="speaker.svg"><defs
   id="defs4399" /><sodipodi:namedview
   pagecolor="#ffffff"
   bordercolor="#666666"
   borderopacity="1"
   objecttolerance="10"
   gridtolerance="10"
   guidetolerance="10"
   inkscape:pageopacity="0"
   inkscape:pageshadow="2"
   inkscape:window-width="1024"
   inkscape:window-height="1258"
   id="namedview4397"
   showgrid="false"
   inkscape:zoom="0.472"
   inkscape:cx="12.385893"
   inkscape:cy="196.28034"
   inkscape:window-x="-8"
   inkscape:window-y="0"
   inkscape:window-maximized="1"
   inkscape:current-layer="layer1" /><metadata
   id="metadata1"><rdf:RDF><cc:Work
       rdf:about=""><dc:format>image/svg+xml</dc:format><dc:type
         rdf:resource="http://purl.org/dc/dcmitype/StillImage" /></cc:Work></rdf:RDF></metadata>
<path
   style="fill:#666666;fill-opacity:1"
   d="m 316.67675,342.64853 c -4.60971,-1.40729 -8.72676,-5.03761 -10.77758,-9.50343 -0.83609,-1.82065 -1.11998,-3.46669 -1.10738,-6.42076 0.0185,-4.34696 -0.12759,-3.97551 6.45973,-16.41949 9.8402,-18.58893 13.84621,-36.20539 13.2293,-58.17583 -0.39404,-14.03286 -2.36403,-24.24058 -7.3172,-37.91482 -1.62144,-4.47629 -5.44674,-12.33822 -10.58704,-21.75893 -2.18759,-4.00923 -2.3116,-4.46534 -2.30401,-8.47457 0.01,-5.2664 1.25889,-8.28601 4.88573,-11.81252 6.27341,-6.09986 16.30085,-5.97271 22.56513,0.28613 2.49784,2.49567 6.93561,9.99012 11.21612,18.94164 9.78289,20.45825 14.50559,41.34484 14.5165,64.20063 0.008,17.08644 -2.14138,30.88781 -7.24205,46.49852 -4.76044,14.56943 -13.07757,31.17353 -18.20215,36.33831 -3.84471,3.87487 -10.47764,5.69805 -15.3351,4.21512 z"
   id="path4403"
   inkscape:connector-curvature="0"
   transform="scale(0.15,0.15)" /><path
   style="fill:#666666;fill-opacity:1"
   d="m 364.2056,389.73497 c -3.2955,-0.82202 -5.96635,-2.44874 -8.21526,-5.00364 -3.38541,-3.84603 -4.08617,-5.71158 -4.08203,-10.86716 0.004,-5.11544 0.52784,-6.43136 5.2701,-13.24152 18.03832,-25.90408 29.21739,-56.69486 32.08915,-88.38386 1.31703,-14.53299 0.14828,-37.47381 -2.64226,-51.86391 -4.60048,-23.72344 -14.51315,-47.35569 -28.44412,-67.81199 -6.65192,-9.76771 -6.80337,-10.11747 -6.80783,-15.72202 -0.003,-4.29064 0.15214,-5.04845 1.5568,-7.58414 1.75361,-3.16563 4.0248,-5.36088 7.32595,-7.08099 1.7723,-0.92348 3.17051,-1.17143 6.73845,-1.19499 3.9504,-0.0261 4.87323,0.15833 7.53044,1.50474 4.33593,2.19703 8.73905,7.78641 17.39283,22.07866 16.46218,27.18832 26.81089,58.66938 29.9056,90.97369 1.34235,14.01214 0.99908,33.87615 -0.83439,48.28396 -4.13053,32.45871 -16.50606,65.15244 -34.98586,92.42585 -2.56603,3.78707 -5.55756,7.8147 -6.64784,8.95028 -3.71261,3.86687 -10.13071,5.78896 -15.14973,4.53704 l 0,0 z"
   id="path4405"
   inkscape:connector-curvature="0"
   transform="scale(0.15,0.15)" /><path
   style="fill:#666666;fill-opacity:1"
   d="m 405.43843,432.40212 c -6.43633,-2.646 -10.06154,-8.08095 -10.09056,-15.12787 -0.0202,-4.9167 0.81824,-6.69818 7.22181,-15.34367 13.9544,-18.83989 24.70848,-38.38974 32.68022,-59.40937 21.31726,-56.2087 21.00861,-119.91031 -0.85027,-175.48967 -8.34973,-21.23038 -18.53438,-39.46045 -32.69778,-58.52754 -6.17386,-8.3114 -6.75211,-9.464648 -7.03774,-14.036015 -0.41129,-6.582576 2.65638,-12.183466 8.42218,-15.377041 2.56002,-1.417954 3.30578,-1.571633 7.60529,-1.567234 4.1329,0.0042 5.11921,0.191677 7.41526,1.409273 3.18657,1.689837 4.66929,3.225193 10.2169,10.579576 53.20535,70.533521 69.29935,162.778091 43.28099,248.069831 -5.8671,19.23315 -15.41639,40.73602 -26.24704,59.10247 -8.24509,13.9819 -20.60275,31.08656 -24.49761,33.90798 -4.48083,3.24589 -10.27389,3.92554 -15.42165,1.80928 l 0,0 z"
   id="path4407"
   inkscape:connector-curvature="0"
   transform="scale(0.15,0.15)" /><path
   style="fill:#666666;fill-opacity:1"
   d="m 257.99038,433.89898 c -1.43353,-0.45745 -3.38338,-1.35967 -4.33299,-2.00495 -0.94961,-0.64527 -26.65285,-22.73291 -57.11833,-49.08363 L 141.14729,334.9 88.848747,334.63517 36.550198,334.37034 33.585844,332.91372 c -3.878441,-1.90579 -6.656564,-4.66469 -8.364723,-8.30685 l -1.382788,-2.9484 0,-67.53178 0,-67.53178 1.456519,-2.76301 c 1.93632,-3.6732 4.692706,-6.3416 8.296404,-8.03157 l 2.958942,-1.38762 53.066912,-0.26483 53.06691,-0.26483 55.10421,-47.66949 c 30.85513,-26.692116 56.2167,-48.24318 57.63225,-48.97315 3.61124,-1.86225 8.91068,-2.091366 12.98282,-0.5613 3.59937,1.352426 7.41263,4.907203 9.07456,8.459434 l 1.12742,2.409758 0.13571,166.682128 0.13571,166.68213 -1.09108,2.91619 c -2.99571,8.00674 -11.96412,12.56914 -19.79524,10.07023 l 0,0 z"
   id="path4417"
   inkscape:connector-curvature="0"
   transform="scale(0.15,0.15)" /></svg>